<svg width="146" height="24" viewBox="0 0 146 24" fill="none" xmlns="http://www.w3.org/2000/svg">
<path d="M21.9684 6.5175C21.8801 6.17189 21.7109 5.85224 21.4747 5.58491C21.2385 5.31758 20.9421 5.11024 20.61 4.98C17.3962 3.73875 12.2812 3.75 12 3.75C11.7188 3.75 6.60375 3.73875 3.39 4.98C3.0579 5.11024 2.76153 5.31758 2.52534 5.58491C2.28915 5.85224 2.1199 6.17189 2.03156 6.5175C1.78875 7.45313 1.5 9.16313 1.5 12C1.5 14.8369 1.78875 16.5469 2.03156 17.4825C2.11977 17.8283 2.28895 18.1481 2.52515 18.4156C2.76136 18.6831 3.0578 18.8906 3.39 19.0209C6.46875 20.2088 11.2875 20.25 11.9381 20.25H12.0619C12.7125 20.25 17.5341 20.2088 20.61 19.0209C20.9422 18.8906 21.2386 18.6831 21.4748 18.4156C21.711 18.1481 21.8802 17.8283 21.9684 17.4825C22.2113 16.545 22.5 14.8369 22.5 12C22.5 9.16313 22.2113 7.45313 21.9684 6.5175ZM15.0553 12.6113L11.3053 15.2363C11.1931 15.3148 11.0616 15.3612 10.9249 15.3703C10.7883 15.3794 10.6517 15.351 10.5301 15.288C10.4085 15.225 10.3064 15.1299 10.235 15.013C10.1636 14.8962 10.1256 14.762 10.125 14.625V9.375C10.125 9.2378 10.1627 9.10324 10.2339 8.98597C10.3051 8.86869 10.4071 8.77319 10.5289 8.70987C10.6506 8.64655 10.7873 8.61783 10.9242 8.62683C11.0611 8.63584 11.1929 8.68222 11.3053 8.76094L15.0553 11.3859C15.154 11.4551 15.2345 11.547 15.2901 11.6539C15.3457 11.7608 15.3747 11.8795 15.3747 12C15.3747 12.1205 15.3457 12.2392 15.2901 12.3461C15.2345 12.453 15.154 12.5449 15.0553 12.6141V12.6113Z" fill="black"/>
<path d="M21.9684 6.5175C21.8801 6.17189 21.7109 5.85224 21.4747 5.58491C21.2385 5.31758 20.9421 5.11024 20.61 4.98C17.3962 3.73875 12.2812 3.75 12 3.75C11.7188 3.75 6.60375 3.73875 3.39 4.98C3.0579 5.11024 2.76153 5.31758 2.52534 5.58491C2.28915 5.85224 2.1199 6.17189 2.03156 6.5175C1.78875 7.45313 1.5 9.16313 1.5 12C1.5 14.8369 1.78875 16.5469 2.03156 17.4825C2.11977 17.8283 2.28895 18.1481 2.52515 18.4156C2.76136 18.6831 3.0578 18.8906 3.39 19.0209C6.46875 20.2088 11.2875 20.25 11.9381 20.25H12.0619C12.7125 20.25 17.5341 20.2088 20.61 19.0209C20.9422 18.8906 21.2386 18.6831 21.4748 18.4156C21.711 18.1481 21.8802 17.8283 21.9684 17.4825C22.2113 16.545 22.5 14.8369 22.5 12C22.5 9.16313 22.2113 7.45313 21.9684 6.5175ZM15.0553 12.6113L11.3053 15.2363C11.1931 15.3148 11.0616 15.3612 10.9249 15.3703C10.7883 15.3794 10.6517 15.351 10.5301 15.288C10.4085 15.225 10.3064 15.1299 10.235 15.013C10.1636 14.8962 10.1256 14.762 10.125 14.625V9.375C10.125 9.2378 10.1627 9.10324 10.2339 8.98597C10.3051 8.86869 10.4071 8.77319 10.5289 8.70987C10.6506 8.64655 10.7873 8.61783 10.9242 8.62683C11.0611 8.63584 11.1929 8.68222 11.3053 8.76094L15.0553 11.3859C15.154 11.4551 15.2345 11.547 15.2901 11.6539C15.3457 11.7608 15.3747 11.8795 15.3747 12C15.3747 12.1205 15.3457 12.2392 15.2901 12.3461C15.2345 12.453 15.154 12.5449 15.0553 12.6141V12.6113Z" fill="url(#paint0_linear_63_26)" style="mix-blend-mode:plus-lighter"/>
<path d="M31.0746 5.63636H34.2983L37.7031 13.9432H37.848L41.2528 5.63636H44.4766V18H41.9411V9.95277H41.8384L38.6388 17.9396H36.9123L33.7127 9.92258H33.6101V18H31.0746V5.63636ZM50.3466 18.1811C49.4088 18.1811 48.5979 17.9819 47.9137 17.5835C47.2335 17.181 46.7083 16.6216 46.3381 15.9052C45.9678 15.1848 45.7827 14.3497 45.7827 13.3999C45.7827 12.442 45.9678 11.6049 46.3381 10.8885C46.7083 10.1681 47.2335 9.60866 47.9137 9.21023C48.5979 8.80776 49.4088 8.60653 50.3466 8.60653C51.2843 8.60653 52.0933 8.80776 52.7734 9.21023C53.4576 9.60866 53.9848 10.1681 54.3551 10.8885C54.7254 11.6049 54.9105 12.442 54.9105 13.3999C54.9105 14.3497 54.7254 15.1848 54.3551 15.9052C53.9848 16.6216 53.4576 17.181 52.7734 17.5835C52.0933 17.9819 51.2843 18.1811 50.3466 18.1811ZM50.3586 16.1889C50.7853 16.1889 51.1414 16.0682 51.4272 15.8267C51.7129 15.5812 51.9282 15.2472 52.0731 14.8246C52.222 14.402 52.2965 13.921 52.2965 13.3817C52.2965 12.8424 52.222 12.3615 52.0731 11.9389C51.9282 11.5163 51.7129 11.1823 51.4272 10.9368C51.1414 10.6913 50.7853 10.5685 50.3586 10.5685C49.928 10.5685 49.5658 10.6913 49.272 10.9368C48.9822 11.1823 48.7629 11.5163 48.614 11.9389C48.4691 12.3615 48.3966 12.8424 48.3966 13.3817C48.3966 13.921 48.4691 14.402 48.614 14.8246C48.7629 15.2472 48.9822 15.5812 49.272 15.8267C49.5658 16.0682 49.928 16.1889 50.3586 16.1889ZM64.5038 8.72727L61.2619 18H58.3642L55.1224 8.72727H57.839L59.7648 15.3619H59.8614L61.7811 8.72727H64.5038ZM65.3948 18V8.72727H67.9666V18H65.3948ZM66.6867 7.53196C66.3044 7.53196 65.9764 7.40518 65.7027 7.15163C65.4331 6.89406 65.2982 6.58617 65.2982 6.22798C65.2982 5.87382 65.4331 5.56996 65.7027 5.31641C65.9764 5.05883 66.3044 4.93004 66.6867 4.93004C67.0691 4.93004 67.3951 5.05883 67.6647 5.31641C67.9384 5.56996 68.0752 5.87382 68.0752 6.22798C68.0752 6.58617 67.9384 6.89406 67.6647 7.15163C67.3951 7.40518 67.0691 7.53196 66.6867 7.53196ZM73.8275 18.1811C72.8737 18.1811 72.0527 17.9879 71.3645 17.6016C70.6803 17.2112 70.153 16.6598 69.7828 15.9474C69.4125 15.2311 69.2274 14.3839 69.2274 13.4059C69.2274 12.4521 69.4125 11.6149 69.7828 10.8945C70.153 10.1741 70.6742 9.61269 71.3463 9.21023C72.0225 8.80776 72.8153 8.60653 73.7249 8.60653C74.3366 8.60653 74.9061 8.70514 75.4333 8.90234C75.9646 9.09553 76.4274 9.38731 76.8218 9.7777C77.2203 10.1681 77.5302 10.6591 77.7515 11.2507C77.9729 11.8383 78.0836 12.5265 78.0836 13.3153V14.0217H70.2537V12.4279H75.6627C75.6627 12.0576 75.5823 11.7296 75.4213 11.4439C75.2603 11.1581 75.0369 10.9348 74.7512 10.7738C74.4694 10.6088 74.1414 10.5263 73.7672 10.5263C73.3768 10.5263 73.0306 10.6168 72.7288 10.7979C72.431 10.975 72.1975 11.2145 72.0285 11.5163C71.8595 11.8142 71.773 12.1462 71.7689 12.5124V14.0277C71.7689 14.4865 71.8534 14.8829 72.0225 15.217C72.1955 15.551 72.439 15.8086 72.7529 15.9897C73.0669 16.1708 73.4391 16.2614 73.8698 16.2614C74.1555 16.2614 74.4171 16.2211 74.6546 16.1406C74.892 16.0601 75.0953 15.9394 75.2643 15.7784C75.4333 15.6174 75.5621 15.4202 75.6507 15.1868L78.0292 15.3438C77.9085 15.9152 77.661 16.4143 77.2867 16.8409C76.9164 17.2635 76.4375 17.5935 75.8499 17.831C75.2663 18.0644 74.5922 18.1811 73.8275 18.1811ZM79.3851 18V5.63636H84.263C85.1967 5.63636 85.9935 5.80339 86.6536 6.13743C87.3176 6.46745 87.8227 6.93632 88.1689 7.54403C88.519 8.14773 88.6941 8.85807 88.6941 9.67507C88.6941 10.4961 88.517 11.2024 88.1628 11.794C87.8087 12.3816 87.2955 12.8324 86.6234 13.1463C85.9553 13.4602 85.1464 13.6172 84.1966 13.6172H80.9306V11.5163H83.774C84.273 11.5163 84.6876 11.4479 85.0176 11.3111C85.3476 11.1742 85.5931 10.969 85.7541 10.6953C85.9191 10.4216 86.0016 10.0816 86.0016 9.67507C86.0016 9.26456 85.9191 8.91844 85.7541 8.63672C85.5931 8.35499 85.3456 8.14169 85.0115 7.9968C84.6815 7.84789 84.265 7.77344 83.7619 7.77344H81.9991V18H79.3851ZM86.062 12.3736L89.1348 18H86.2491L83.2427 12.3736H86.062ZM94.1445 18.1811C93.1907 18.1811 92.3697 17.9879 91.6814 17.6016C90.9973 17.2112 90.47 16.6598 90.0998 15.9474C89.7295 15.2311 89.5444 14.3839 89.5444 13.4059C89.5444 12.4521 89.7295 11.6149 90.0998 10.8945C90.47 10.1741 90.9912 9.61269 91.6633 9.21023C92.3395 8.80776 93.1323 8.60653 94.0419 8.60653C94.6536 8.60653 95.2231 8.70514 95.7503 8.90234C96.2816 9.09553 96.7444 9.38731 97.1388 9.7777C97.5373 10.1681 97.8472 10.6591 98.0685 11.2507C98.2899 11.8383 98.4006 12.5265 98.4006 13.3153V14.0217H90.5707V12.4279H95.9797C95.9797 12.0576 95.8992 11.7296 95.7383 11.4439C95.5773 11.1581 95.3539 10.9348 95.0682 10.7738C94.7864 10.6088 94.4584 10.5263 94.0841 10.5263C93.6938 10.5263 93.3476 10.6168 93.0458 10.7979C92.748 10.975 92.5145 11.2145 92.3455 11.5163C92.1765 11.8142 92.0899 12.1462 92.0859 12.5124V14.0277C92.0859 14.4865 92.1704 14.8829 92.3395 15.217C92.5125 15.551 92.756 15.8086 93.0699 15.9897C93.3839 16.1708 93.7561 16.2614 94.1868 16.2614C94.4725 16.2614 94.7341 16.2211 94.9716 16.1406C95.209 16.0601 95.4123 15.9394 95.5813 15.7784C95.7503 15.6174 95.8791 15.4202 95.9677 15.1868L98.3462 15.3438C98.2255 15.9152 97.978 16.4143 97.6037 16.8409C97.2334 17.2635 96.7545 17.5935 96.1669 17.831C95.5833 18.0644 94.9092 18.1811 94.1445 18.1811ZM108.05 8.72727L104.808 18H101.91L98.6683 8.72727H101.385L103.311 15.3619H103.407L105.327 8.72727H108.05ZM108.941 18V8.72727H111.512V18H108.941ZM110.233 7.53196C109.85 7.53196 109.522 7.40518 109.249 7.15163C108.979 6.89406 108.844 6.58617 108.844 6.22798C108.844 5.87382 108.979 5.56996 109.249 5.31641C109.522 5.05883 109.85 4.93004 110.233 4.93004C110.615 4.93004 110.941 5.05883 111.211 5.31641C111.484 5.56996 111.621 5.87382 111.621 6.22798C111.621 6.58617 111.484 6.89406 111.211 7.15163C110.941 7.40518 110.615 7.53196 110.233 7.53196ZM117.373 18.1811C116.42 18.1811 115.599 17.9879 114.91 17.6016C114.226 17.2112 113.699 16.6598 113.329 15.9474C112.958 15.2311 112.773 14.3839 112.773 13.4059C112.773 12.4521 112.958 11.6149 113.329 10.8945C113.699 10.1741 114.22 9.61269 114.892 9.21023C115.568 8.80776 116.361 8.60653 117.271 8.60653C117.883 8.60653 118.452 8.70514 118.979 8.90234C119.51 9.09553 119.973 9.38731 120.368 9.7777C120.766 10.1681 121.076 10.6591 121.297 11.2507C121.519 11.8383 121.629 12.5265 121.629 13.3153V14.0217H113.8V12.4279H119.209C119.209 12.0576 119.128 11.7296 118.967 11.4439C118.806 11.1581 118.583 10.9348 118.297 10.7738C118.015 10.6088 117.687 10.5263 117.313 10.5263C116.923 10.5263 116.577 10.6168 116.275 10.7979C115.977 10.975 115.743 11.2145 115.574 11.5163C115.405 11.8142 115.319 12.1462 115.315 12.5124V14.0277C115.315 14.4865 115.399 14.8829 115.568 15.217C115.741 15.551 115.985 15.8086 116.299 15.9897C116.613 16.1708 116.985 16.2614 117.416 16.2614C117.701 16.2614 117.963 16.2211 118.2 16.1406C118.438 16.0601 118.641 15.9394 118.81 15.7784C118.979 15.6174 119.108 15.4202 119.197 15.1868L121.575 15.3438C121.454 15.9152 121.207 16.4143 120.833 16.8409C120.462 17.2635 119.983 17.5935 119.396 17.831C118.812 18.0644 118.138 18.1811 117.373 18.1811ZM124.646 18L122.122 8.72727H124.724L126.161 14.9574H126.245L127.742 8.72727H130.296L131.817 14.9212H131.896L133.309 8.72727H135.904L133.387 18H130.664L129.071 12.1683H128.956L127.362 18H124.646ZM144.566 11.3714L142.212 11.5163C142.172 11.3151 142.085 11.134 141.952 10.973C141.82 10.808 141.645 10.6772 141.427 10.5806C141.214 10.48 140.958 10.4297 140.661 10.4297C140.262 10.4297 139.926 10.5142 139.652 10.6832C139.379 10.8482 139.242 11.0696 139.242 11.3473C139.242 11.5687 139.33 11.7558 139.508 11.9087C139.685 12.0617 139.988 12.1844 140.419 12.277L142.097 12.6151C142.999 12.8002 143.671 13.098 144.114 13.5085C144.556 13.919 144.778 14.4583 144.778 15.1264C144.778 15.7341 144.599 16.2674 144.24 16.7262C143.886 17.185 143.399 17.5432 142.78 17.8008C142.164 18.0543 141.453 18.1811 140.649 18.1811C139.421 18.1811 138.443 17.9255 137.715 17.4144C136.99 16.8993 136.566 16.199 136.441 15.3136L138.97 15.1808C139.047 15.555 139.232 15.8408 139.526 16.038C139.819 16.2312 140.196 16.3278 140.655 16.3278C141.105 16.3278 141.468 16.2412 141.741 16.0682C142.019 15.8911 142.16 15.6637 142.164 15.386C142.16 15.1526 142.061 14.9614 141.868 14.8125C141.675 14.6596 141.377 14.5429 140.974 14.4624L139.369 14.1424C138.463 13.9613 137.789 13.6474 137.346 13.2006C136.908 12.7539 136.688 12.1844 136.688 11.4922C136.688 10.8965 136.849 10.3834 137.171 9.95277C137.497 9.52214 137.954 9.1901 138.542 8.95668C139.133 8.72325 139.825 8.60653 140.618 8.60653C141.789 8.60653 142.711 8.85405 143.383 9.34908C144.059 9.8441 144.454 10.5182 144.566 11.3714Z" fill="black"/>
<path d="M31.0746 5.63636H34.2983L37.7031 13.9432H37.848L41.2528 5.63636H44.4766V18H41.9411V9.95277H41.8384L38.6388 17.9396H36.9123L33.7127 9.92258H33.6101V18H31.0746V5.63636ZM50.3466 18.1811C49.4088 18.1811 48.5979 17.9819 47.9137 17.5835C47.2335 17.181 46.7083 16.6216 46.3381 15.9052C45.9678 15.1848 45.7827 14.3497 45.7827 13.3999C45.7827 12.442 45.9678 11.6049 46.3381 10.8885C46.7083 10.1681 47.2335 9.60866 47.9137 9.21023C48.5979 8.80776 49.4088 8.60653 50.3466 8.60653C51.2843 8.60653 52.0933 8.80776 52.7734 9.21023C53.4576 9.60866 53.9848 10.1681 54.3551 10.8885C54.7254 11.6049 54.9105 12.442 54.9105 13.3999C54.9105 14.3497 54.7254 15.1848 54.3551 15.9052C53.9848 16.6216 53.4576 17.181 52.7734 17.5835C52.0933 17.9819 51.2843 18.1811 50.3466 18.1811ZM50.3586 16.1889C50.7853 16.1889 51.1414 16.0682 51.4272 15.8267C51.7129 15.5812 51.9282 15.2472 52.0731 14.8246C52.222 14.402 52.2965 13.921 52.2965 13.3817C52.2965 12.8424 52.222 12.3615 52.0731 11.9389C51.9282 11.5163 51.7129 11.1823 51.4272 10.9368C51.1414 10.6913 50.7853 10.5685 50.3586 10.5685C49.928 10.5685 49.5658 10.6913 49.272 10.9368C48.9822 11.1823 48.7629 11.5163 48.614 11.9389C48.4691 12.3615 48.3966 12.8424 48.3966 13.3817C48.3966 13.921 48.4691 14.402 48.614 14.8246C48.7629 15.2472 48.9822 15.5812 49.272 15.8267C49.5658 16.0682 49.928 16.1889 50.3586 16.1889ZM64.5038 8.72727L61.2619 18H58.3642L55.1224 8.72727H57.839L59.7648 15.3619H59.8614L61.7811 8.72727H64.5038ZM65.3948 18V8.72727H67.9666V18H65.3948ZM66.6867 7.53196C66.3044 7.53196 65.9764 7.40518 65.7027 7.15163C65.4331 6.89406 65.2982 6.58617 65.2982 6.22798C65.2982 5.87382 65.4331 5.56996 65.7027 5.31641C65.9764 5.05883 66.3044 4.93004 66.6867 4.93004C67.0691 4.93004 67.3951 5.05883 67.6647 5.31641C67.9384 5.56996 68.0752 5.87382 68.0752 6.22798C68.0752 6.58617 67.9384 6.89406 67.6647 7.15163C67.3951 7.40518 67.0691 7.53196 66.6867 7.53196ZM73.8275 18.1811C72.8737 18.1811 72.0527 17.9879 71.3645 17.6016C70.6803 17.2112 70.153 16.6598 69.7828 15.9474C69.4125 15.2311 69.2274 14.3839 69.2274 13.4059C69.2274 12.4521 69.4125 11.6149 69.7828 10.8945C70.153 10.1741 70.6742 9.61269 71.3463 9.21023C72.0225 8.80776 72.8153 8.60653 73.7249 8.60653C74.3366 8.60653 74.9061 8.70514 75.4333 8.90234C75.9646 9.09553 76.4274 9.38731 76.8218 9.7777C77.2203 10.1681 77.5302 10.6591 77.7515 11.2507C77.9729 11.8383 78.0836 12.5265 78.0836 13.3153V14.0217H70.2537V12.4279H75.6627C75.6627 12.0576 75.5823 11.7296 75.4213 11.4439C75.2603 11.1581 75.0369 10.9348 74.7512 10.7738C74.4694 10.6088 74.1414 10.5263 73.7672 10.5263C73.3768 10.5263 73.0306 10.6168 72.7288 10.7979C72.431 10.975 72.1975 11.2145 72.0285 11.5163C71.8595 11.8142 71.773 12.1462 71.7689 12.5124V14.0277C71.7689 14.4865 71.8534 14.8829 72.0225 15.217C72.1955 15.551 72.439 15.8086 72.7529 15.9897C73.0669 16.1708 73.4391 16.2614 73.8698 16.2614C74.1555 16.2614 74.4171 16.2211 74.6546 16.1406C74.892 16.0601 75.0953 15.9394 75.2643 15.7784C75.4333 15.6174 75.5621 15.4202 75.6507 15.1868L78.0292 15.3438C77.9085 15.9152 77.661 16.4143 77.2867 16.8409C76.9164 17.2635 76.4375 17.5935 75.8499 17.831C75.2663 18.0644 74.5922 18.1811 73.8275 18.1811ZM79.3851 18V5.63636H84.263C85.1967 5.63636 85.9935 5.80339 86.6536 6.13743C87.3176 6.46745 87.8227 6.93632 88.1689 7.54403C88.519 8.14773 88.6941 8.85807 88.6941 9.67507C88.6941 10.4961 88.517 11.2024 88.1628 11.794C87.8087 12.3816 87.2955 12.8324 86.6234 13.1463C85.9553 13.4602 85.1464 13.6172 84.1966 13.6172H80.9306V11.5163H83.774C84.273 11.5163 84.6876 11.4479 85.0176 11.3111C85.3476 11.1742 85.5931 10.969 85.7541 10.6953C85.9191 10.4216 86.0016 10.0816 86.0016 9.67507C86.0016 9.26456 85.9191 8.91844 85.7541 8.63672C85.5931 8.35499 85.3456 8.14169 85.0115 7.9968C84.6815 7.84789 84.265 7.77344 83.7619 7.77344H81.9991V18H79.3851ZM86.062 12.3736L89.1348 18H86.2491L83.2427 12.3736H86.062ZM94.1445 18.1811C93.1907 18.1811 92.3697 17.9879 91.6814 17.6016C90.9973 17.2112 90.47 16.6598 90.0998 15.9474C89.7295 15.2311 89.5444 14.3839 89.5444 13.4059C89.5444 12.4521 89.7295 11.6149 90.0998 10.8945C90.47 10.1741 90.9912 9.61269 91.6633 9.21023C92.3395 8.80776 93.1323 8.60653 94.0419 8.60653C94.6536 8.60653 95.2231 8.70514 95.7503 8.90234C96.2816 9.09553 96.7444 9.38731 97.1388 9.7777C97.5373 10.1681 97.8472 10.6591 98.0685 11.2507C98.2899 11.8383 98.4006 12.5265 98.4006 13.3153V14.0217H90.5707V12.4279H95.9797C95.9797 12.0576 95.8992 11.7296 95.7383 11.4439C95.5773 11.1581 95.3539 10.9348 95.0682 10.7738C94.7864 10.6088 94.4584 10.5263 94.0841 10.5263C93.6938 10.5263 93.3476 10.6168 93.0458 10.7979C92.748 10.975 92.5145 11.2145 92.3455 11.5163C92.1765 11.8142 92.0899 12.1462 92.0859 12.5124V14.0277C92.0859 14.4865 92.1704 14.8829 92.3395 15.217C92.5125 15.551 92.756 15.8086 93.0699 15.9897C93.3839 16.1708 93.7561 16.2614 94.1868 16.2614C94.4725 16.2614 94.7341 16.2211 94.9716 16.1406C95.209 16.0601 95.4123 15.9394 95.5813 15.7784C95.7503 15.6174 95.8791 15.4202 95.9677 15.1868L98.3462 15.3438C98.2255 15.9152 97.978 16.4143 97.6037 16.8409C97.2334 17.2635 96.7545 17.5935 96.1669 17.831C95.5833 18.0644 94.9092 18.1811 94.1445 18.1811ZM108.05 8.72727L104.808 18H101.91L98.6683 8.72727H101.385L103.311 15.3619H103.407L105.327 8.72727H108.05ZM108.941 18V8.72727H111.512V18H108.941ZM110.233 7.53196C109.85 7.53196 109.522 7.40518 109.249 7.15163C108.979 6.89406 108.844 6.58617 108.844 6.22798C108.844 5.87382 108.979 5.56996 109.249 5.31641C109.522 5.05883 109.85 4.93004 110.233 4.93004C110.615 4.93004 110.941 5.05883 111.211 5.31641C111.484 5.56996 111.621 5.87382 111.621 6.22798C111.621 6.58617 111.484 6.89406 111.211 7.15163C110.941 7.40518 110.615 7.53196 110.233 7.53196ZM117.373 18.1811C116.42 18.1811 115.599 17.9879 114.91 17.6016C114.226 17.2112 113.699 16.6598 113.329 15.9474C112.958 15.2311 112.773 14.3839 112.773 13.4059C112.773 12.4521 112.958 11.6149 113.329 10.8945C113.699 10.1741 114.22 9.61269 114.892 9.21023C115.568 8.80776 116.361 8.60653 117.271 8.60653C117.883 8.60653 118.452 8.70514 118.979 8.90234C119.51 9.09553 119.973 9.38731 120.368 9.7777C120.766 10.1681 121.076 10.6591 121.297 11.2507C121.519 11.8383 121.629 12.5265 121.629 13.3153V14.0217H113.8V12.4279H119.209C119.209 12.0576 119.128 11.7296 118.967 11.4439C118.806 11.1581 118.583 10.9348 118.297 10.7738C118.015 10.6088 117.687 10.5263 117.313 10.5263C116.923 10.5263 116.577 10.6168 116.275 10.7979C115.977 10.975 115.743 11.2145 115.574 11.5163C115.405 11.8142 115.319 12.1462 115.315 12.5124V14.0277C115.315 14.4865 115.399 14.8829 115.568 15.217C115.741 15.551 115.985 15.8086 116.299 15.9897C116.613 16.1708 116.985 16.2614 117.416 16.2614C117.701 16.2614 117.963 16.2211 118.2 16.1406C118.438 16.0601 118.641 15.9394 118.81 15.7784C118.979 15.6174 119.108 15.4202 119.197 15.1868L121.575 15.3438C121.454 15.9152 121.207 16.4143 120.833 16.8409C120.462 17.2635 119.983 17.5935 119.396 17.831C118.812 18.0644 118.138 18.1811 117.373 18.1811ZM124.646 18L122.122 8.72727H124.724L126.161 14.9574H126.245L127.742 8.72727H130.296L131.817 14.9212H131.896L133.309 8.72727H135.904L133.387 18H130.664L129.071 12.1683H128.956L127.362 18H124.646ZM144.566 11.3714L142.212 11.5163C142.172 11.3151 142.085 11.134 141.952 10.973C141.82 10.808 141.645 10.6772 141.427 10.5806C141.214 10.48 140.958 10.4297 140.661 10.4297C140.262 10.4297 139.926 10.5142 139.652 10.6832C139.379 10.8482 139.242 11.0696 139.242 11.3473C139.242 11.5687 139.33 11.7558 139.508 11.9087C139.685 12.0617 139.988 12.1844 140.419 12.277L142.097 12.6151C142.999 12.8002 143.671 13.098 144.114 13.5085C144.556 13.919 144.778 14.4583 144.778 15.1264C144.778 15.7341 144.599 16.2674 144.24 16.7262C143.886 17.185 143.399 17.5432 142.78 17.8008C142.164 18.0543 141.453 18.1811 140.649 18.1811C139.421 18.1811 138.443 17.9255 137.715 17.4144C136.99 16.8993 136.566 16.199 136.441 15.3136L138.97 15.1808C139.047 15.555 139.232 15.8408 139.526 16.038C139.819 16.2312 140.196 16.3278 140.655 16.3278C141.105 16.3278 141.468 16.2412 141.741 16.0682C142.019 15.8911 142.16 15.6637 142.164 15.386C142.16 15.1526 142.061 14.9614 141.868 14.8125C141.675 14.6596 141.377 14.5429 140.974 14.4624L139.369 14.1424C138.463 13.9613 137.789 13.6474 137.346 13.2006C136.908 12.7539 136.688 12.1844 136.688 11.4922C136.688 10.8965 136.849 10.3834 137.171 9.95277C137.497 9.52214 137.954 9.1901 138.542 8.95668C139.133 8.72325 139.825 8.60653 140.618 8.60653C141.789 8.60653 142.711 8.85405 143.383 9.34908C144.059 9.8441 144.454 10.5182 144.566 11.3714Z" fill="url(#paint1_linear_63_26)" style="mix-blend-mode:plus-lighter"/>
<defs>
<linearGradient id="paint0_linear_63_26" x1="12" y1="3.75" x2="12" y2="20.25" gradientUnits="userSpaceOnUse">
<stop stop-color="white" stop-opacity="0.32"/>
<stop offset="1" stop-color="white" stop-opacity="0"/>
</linearGradient>
<linearGradient id="paint1_linear_63_26" x1="88" y1="0" x2="88" y2="24" gradientUnits="userSpaceOnUse">
<stop stop-color="white" stop-opacity="0.32"/>
<stop offset="1" stop-color="white" stop-opacity="0"/>
</linearGradient>
</defs>
</svg>
